<?xml version="1.0" encoding="utf-8"?>
<svg version="1.1" id="Capa_1" x="0px" y="0px" viewBox="0 0 378 60" style="enable-background:new 0 0 400 400;" xmlns="http://www.w3.org/2000/svg" xmlns:bx="https://boxy-svg.com">
  <defs>
    <bx:grid x="0" y="0" width="377.766" height="59.958"/>
  </defs>
  <g/>
  <g/>
  <g/>
  <g/>
  <g/>
  <g/>
  <g/>
  <g/>
  <g/>
  <g/>
  <g/>
  <g/>
  <g/>
  <g/>
  <g/>
  <text style="font-family: Dyuthi; font-size: 39px; white-space: pre;" x="67.13" y="39.925" bx:origin="0.401307 -0.849741">2021 created by UC</text>
  <circle style="stroke: rgb(0, 0, 0); stroke-width: 5px; fill: none;" cx="45.097" cy="140.573" r="40.573" transform="matrix(0.677954, 0, 0, 0.636399, 1.878433, -59.319553)" bx:origin="3.335211 -0.445381"/>
  <text style="font-family: Arial, sans-serif; font-size: 67px; font-weight: 700; white-space: pre;" transform="matrix(0.765155, 0, 0, 0.65069, -19.549875, -180.559967)" x="42.571" y="347.407" bx:origin="4.73742 -0.50907">C</text>
  <g transform="matrix(0.626675, 0, 0, 0.650333, 273.861969, -29.709057)" style=""/>
  <g transform="matrix(0.626675, 0, 0, 0.650333, 273.861969, -29.709057)" style=""/>
  <g transform="matrix(0.626675, 0, 0, 0.650333, 273.861969, -29.709057)" style=""/>
  <g transform="matrix(0.626675, 0, 0, 0.650333, 273.861969, -29.709057)" style=""/>
  <g transform="matrix(0.626675, 0, 0, 0.650333, 273.861969, -29.709057)" style=""/>
  <g transform="matrix(0.626675, 0, 0, 0.650333, 273.861969, -29.709057)" style=""/>
  <g transform="matrix(0.626675, 0, 0, 0.650333, 273.861969, -29.709057)" style=""/>
  <g transform="matrix(0.626675, 0, 0, 0.650333, 273.861969, -29.709057)" style=""/>
  <g transform="matrix(0.626675, 0, 0, 0.650333, 273.861969, -29.709057)" style=""/>
  <g transform="matrix(0.626675, 0, 0, 0.650333, 273.861969, -29.709057)" style=""/>
  <g transform="matrix(0.626675, 0, 0, 0.650333, 273.861969, -29.709057)" style=""/>
  <g transform="matrix(0.626675, 0, 0, 0.650333, 273.861969, -29.709057)" style=""/>
  <g transform="matrix(0.626675, 0, 0, 0.650333, 273.861969, -29.709057)" style=""/>
  <g transform="matrix(0.626675, 0, 0, 0.650333, 273.861969, -29.709057)" style=""/>
  <g transform="matrix(0.626675, 0, 0, 0.650333, 273.861969, -29.709057)" style=""/>
</svg>