<?xml version="1.0" encoding="utf-8"?>
<svg version="1.1" id="Capa_1" x="0px" y="0px" viewBox="0 0 378 154" style="enable-background:new 0 0 400 400;" xmlns="http://www.w3.org/2000/svg" xmlns:bx="https://boxy-svg.com">
  <g/>
  <g/>
  <g/>
  <g/>
  <g/>
  <g/>
  <g/>
  <g/>
  <g/>
  <g/>
  <g/>
  <g/>
  <g/>
  <g/>
  <g/>
  <text style="font-family: Dyuthi; font-size: 39px; white-space: pre;" x="66.287" y="137.713" bx:origin="0.401307 -0.849741">2021 created by UC</text>
  <circle style="stroke: rgb(0, 0, 0); stroke-width: 5px; fill: none;" cx="45.097" cy="140.573" r="40.573" transform="matrix(0.677954, 0, 0, 0.636399, 2.721426, 36.360111)" bx:origin="3.335211 -0.445381"/>
  <text style="font-family: Arial, sans-serif; font-size: 67px; font-weight: 700; white-space: pre;" transform="matrix(0.765155, 0, 0, 0.65069, -18.706882, -84.880302)" x="42.571" y="347.407" bx:origin="4.73742 -0.50907">C</text>
  <g transform="matrix(0.26537, 0, 0, 0.291556, 120.65332, -26.181728)" style="" bx:origin="0.527688 0.850838">
    <g>
      <g>
        <polygon points="323.6,245 490,389.3 490,100.7 &#9;&#9;&#9;"/>
        <path d="M308.8,257.8l-57.5,49.8c-3.5,3.1-8.8,3.1-12.4,0l-57.7-49.8L17.1,400.2h455.4L308.8,257.8z"/>
        <polygon points="0,100.7 0,389.3 166.4,245 &#9;&#9;&#9;"/>
        <polygon points="472.9,89.8 17.1,89.8 245,287.4 &#9;&#9;&#9;"/>
      </g>
    </g>
  </g>
  <g transform="matrix(0.626675, 0, 0, 0.650333, 273.861969, -29.709057)" style=""/>
  <g transform="matrix(0.626675, 0, 0, 0.650333, 273.861969, -29.709057)" style=""/>
  <g transform="matrix(0.626675, 0, 0, 0.650333, 273.861969, -29.709057)" style=""/>
  <g transform="matrix(0.626675, 0, 0, 0.650333, 273.861969, -29.709057)" style=""/>
  <g transform="matrix(0.626675, 0, 0, 0.650333, 273.861969, -29.709057)" style=""/>
  <g transform="matrix(0.626675, 0, 0, 0.650333, 273.861969, -29.709057)" style=""/>
  <g transform="matrix(0.626675, 0, 0, 0.650333, 273.861969, -29.709057)" style=""/>
  <g transform="matrix(0.626675, 0, 0, 0.650333, 273.861969, -29.709057)" style=""/>
  <g transform="matrix(0.626675, 0, 0, 0.650333, 273.861969, -29.709057)" style=""/>
  <g transform="matrix(0.626675, 0, 0, 0.650333, 273.861969, -29.709057)" style=""/>
  <g transform="matrix(0.626675, 0, 0, 0.650333, 273.861969, -29.709057)" style=""/>
  <g transform="matrix(0.626675, 0, 0, 0.650333, 273.861969, -29.709057)" style=""/>
  <g transform="matrix(0.626675, 0, 0, 0.650333, 273.861969, -29.709057)" style=""/>
  <g transform="matrix(0.626675, 0, 0, 0.650333, 273.861969, -29.709057)" style=""/>
  <g transform="matrix(0.626675, 0, 0, 0.650333, 273.861969, -29.709057)" style=""/>
</svg>