<?xml version="1.0" encoding="utf-8"?>
<svg version="1.1" id="Capa_1" x="0px" y="0px" viewBox="0 0 378 294" style="enable-background:new 0 0 400 400;" xmlns="http://www.w3.org/2000/svg">
  <g id="XMLID_1_" transform="matrix(0.946259, 0, 0, 0.724522, 0, -46.337521)" style="">
    <polygon id="XMLID_869_" points="0,127.5 0,274.219 104.8,206.1 &#9;"/>
    <polygon id="XMLID_870_" points="400,274.219 400,127.5 295.2,206.1 &#9;"/>
    <polygon id="XMLID_871_" points="200,277.5 130.357,225.268 0,310 0,340 400,340 400,310 269.643,225.268 &#9;"/>
    <polygon id="XMLID_872_" points="0,90 200,240 400,90 400,60 0,60 &#9;"/>
  </g>
  <g/>
  <g/>
  <g/>
  <g/>
  <g/>
  <g/>
  <g/>
  <g/>
  <g/>
  <g/>
  <g/>
  <g/>
  <g/>
  <g/>
  <g/>
  <text style="font-family: Dyuthi; font-size: 31px; white-space: pre;" x="118.019" y="260.157">2021 created by UC</text>
  <circle style="stroke: rgb(0, 0, 0); stroke-width: 5px; fill: none;" cx="58.163" cy="249.951" r="40.573"/>
  <text style="font-family: Arial, sans-serif; font-size: 67px; font-weight: 700; white-space: pre;" transform="matrix(1.172161, 0, 0, 1, -20.394009, -74.694389)" x="42.571" y="347.407">C</text>
</svg>