<?xml version="1.0" encoding="utf-8"?>
<svg version="1.1" id="Capa_1" x="0px" y="0px" viewBox="0 0 130 90" style="enable-background:new 0 0 400 400;" xmlns="http://www.w3.org/2000/svg" xmlns:bx="https://boxy-svg.com">
  <defs>
    <bx:grid x="0" y="0" width="378.491" height="154"/>
  </defs>
  <g/>
  <g/>
  <g/>
  <g/>
  <g/>
  <g/>
  <g/>
  <g/>
  <g/>
  <g/>
  <g/>
  <g/>
  <g/>
  <g/>
  <g/>
  <g transform="matrix(0.26537, 0, 0, 0.291556, 0, -26.181728)" style="" bx:origin="0.527688 0.850838">
    <g>
      <g>
        <polygon points="323.6,245 490,389.3 490,100.7 &#9;&#9;&#9;"/>
        <path d="M 309.343 256.209 L 251.843 306.009 C 248.343 309.109 243.043 309.109 239.443 306.009 L 181.743 256.209 L 17.643 398.609 L 473.043 398.609 L 309.343 256.209 Z"/>
        <polygon points="0,100.7 0,389.3 166.4,245 &#9;&#9;&#9;"/>
        <polygon points="472.9,89.8 17.1,89.8 245,287.4 &#9;&#9;&#9;"/>
      </g>
    </g>
  </g>
  <g transform="matrix(0.626675, 0, 0, 0.650333, 273.861969, -29.709057)" style=""/>
  <g transform="matrix(0.626675, 0, 0, 0.650333, 273.861969, -29.709057)" style=""/>
  <g transform="matrix(0.626675, 0, 0, 0.650333, 273.861969, -29.709057)" style=""/>
  <g transform="matrix(0.626675, 0, 0, 0.650333, 273.861969, -29.709057)" style=""/>
  <g transform="matrix(0.626675, 0, 0, 0.650333, 273.861969, -29.709057)" style=""/>
  <g transform="matrix(0.626675, 0, 0, 0.650333, 273.861969, -29.709057)" style=""/>
  <g transform="matrix(0.626675, 0, 0, 0.650333, 273.861969, -29.709057)" style=""/>
  <g transform="matrix(0.626675, 0, 0, 0.650333, 273.861969, -29.709057)" style=""/>
  <g transform="matrix(0.626675, 0, 0, 0.650333, 273.861969, -29.709057)" style=""/>
  <g transform="matrix(0.626675, 0, 0, 0.650333, 273.861969, -29.709057)" style=""/>
  <g transform="matrix(0.626675, 0, 0, 0.650333, 273.861969, -29.709057)" style=""/>
  <g transform="matrix(0.626675, 0, 0, 0.650333, 273.861969, -29.709057)" style=""/>
  <g transform="matrix(0.626675, 0, 0, 0.650333, 273.861969, -29.709057)" style=""/>
  <g transform="matrix(0.626675, 0, 0, 0.650333, 273.861969, -29.709057)" style=""/>
  <g transform="matrix(0.626675, 0, 0, 0.650333, 273.861969, -29.709057)" style=""/>
</svg>