<?xml version="1.0" standalone="no"?>
<!DOCTYPE svg PUBLIC "-//W3C//DTD SVG 20010904//EN"
 "http://www.w3.org/TR/2001/REC-SVG-20010904/DTD/svg10.dtd">
<svg version="1.0" xmlns="http://www.w3.org/2000/svg"
 width="300.000000pt" height="261.000000pt" viewBox="0 0 300.000000 261.000000"
 preserveAspectRatio="xMidYMid meet">

<g transform="translate(0.000000,261.000000) scale(0.100000,-0.100000)"
fill="#000000" stroke="none">
<path d="M320 2536 c-73 -16 -106 -35 -161 -93 -57 -59 -74 -91 -88 -168 -15
-81 -15 -1349 0 -1430 6 -33 20 -77 30 -98 28 -54 95 -116 159 -146 l55 -26
1185 0 1185 0 53 24 c68 31 154 123 176 189 15 43 16 128 14 788 l-3 739 -27
50 c-49 93 -134 155 -237 175 -82 15 -2269 12 -2341 -4z m2393 -22 c60 -20
141 -93 175 -158 l27 -51 0 -745 0 -745 -23 -45 c-30 -57 -84 -114 -142 -148
l-45 -27 -1194 -3 -1194 -2 -53 24 c-73 34 -136 100 -163 170 -21 56 -21 67
-21 776 0 712 0 720 22 777 27 73 97 144 170 172 52 20 74 20 1224 20 1045 1
1175 -1 1217 -15z"/>
<path d="M370 2170 l0 -110 55 0 55 0 0 -509 0 -510 108 -115 107 -114 266 -1
267 -1 106 114 106 113 2 509 3 509 58 3 57 3 0 109 0 110 -245 0 -245 0 0
-110 0 -110 65 0 65 0 0 -468 0 -468 -38 -37 -38 -37 -166 0 -166 0 -31 39
-31 39 0 466 0 466 65 0 65 0 0 110 0 110 -245 0 -245 0 0 -110z"/>
<path d="M1847 2166 l-107 -114 0 -506 0 -506 108 -114 107 -115 247 0 246 -1
111 117 111 118 0 142 0 143 -115 0 -115 0 0 -93 0 -93 -48 -47 -48 -47 -146
0 -146 0 -31 35 -31 36 0 427 0 428 33 32 33 32 149 0 149 0 43 -42 43 -42 0
-93 0 -93 115 0 115 0 0 140 0 141 -107 114 -108 114 -251 1 -250 0 -107 -114z"/>
<path d="M806 418 c-7 -18 -39 -91 -70 -161 -31 -71 -56 -133 -56 -138 0 -6
10 -9 21 -7 18 2 35 34 90 158 38 85 68 161 69 168 0 27 -40 12 -54 -20z"/>
<path d="M1150 300 c0 -122 1 -130 20 -130 16 0 19 8 22 62 3 57 5 64 31 76
22 11 32 11 55 0 25 -12 27 -19 30 -76 3 -58 4 -62 27 -62 24 0 25 3 25 64 0
54 -4 70 -24 93 -22 25 -30 28 -85 27 l-61 -1 0 38 c0 32 -3 39 -20 39 -19 0
-20 -7 -20 -130z"/>
<path d="M1444 415 c-4 -9 -2 -21 4 -27 16 -16 47 -5 47 17 0 26 -42 34 -51
10z"/>
<path d="M980 380 c0 -23 -4 -30 -20 -30 -11 0 -20 -7 -20 -15 0 -8 9 -15 20
-15 18 0 20 -7 20 -75 0 -73 1 -75 25 -75 24 0 25 2 25 75 0 68 2 75 20 75 11
0 20 7 20 15 0 8 -9 15 -20 15 -16 0 -20 7 -20 30 0 25 -4 30 -25 30 -21 0
-25 -5 -25 -30z"/>
<path d="M482 346 c-34 -24 -65 -46 -68 -49 -9 -9 133 -100 145 -92 21 12 10
30 -35 59 l-46 29 47 30 c42 28 56 56 30 63 -5 2 -38 -17 -73 -40z"/>
<path d="M2487 383 c-16 -15 -5 -34 33 -59 22 -15 40 -29 40 -33 0 -3 -21 -19
-46 -35 -41 -26 -44 -30 -30 -44 14 -14 22 -11 86 32 l71 47 -70 50 c-76 53
-74 52 -84 42z"/>
<path d="M1628 353 l-48 -4 0 -90 c0 -88 0 -89 25 -89 24 0 25 3 25 59 0 67
13 85 63 83 42 -1 57 -25 57 -89 0 -50 1 -53 25 -53 24 0 25 3 25 55 0 30 -5
66 -12 80 -14 31 -57 56 -90 53 -13 -1 -44 -3 -70 -5z"/>
<path d="M1920 338 c-30 -20 -35 -30 -38 -70 -3 -41 0 -48 30 -73 29 -24 38
-27 85 -22 58 6 67 -3 28 -29 -19 -12 -37 -15 -69 -11 -35 5 -45 3 -50 -9 -10
-27 3 -34 70 -34 59 0 68 3 95 29 28 29 29 32 29 130 0 98 -1 101 -22 101 -13
0 -45 3 -73 6 -42 5 -56 2 -85 -18z m125 -73 c0 -36 -3 -40 -32 -48 -41 -12
-83 12 -83 47 0 38 40 58 90 46 21 -6 25 -12 25 -45z"/>
<path d="M2220 348 c-36 -20 -49 -62 -25 -88 14 -16 31 -20 77 -20 43 0 59 -3
56 -12 -6 -16 -72 -22 -107 -10 -22 8 -30 6 -39 -8 -15 -24 22 -40 96 -40 73
0 102 18 102 65 0 42 -24 58 -83 54 -66 -3 -71 -1 -57 16 14 17 47 19 84 5 21
-8 26 -6 31 11 4 11 5 23 2 25 -13 13 -114 14 -137 2z"/>
<path d="M1450 260 c0 -83 1 -90 20 -90 19 0 20 7 20 90 0 83 -1 90 -20 90
-19 0 -20 -7 -20 -90z"/>
</g>
</svg>
